<?xml version="1.0" encoding="utf-8"?>
<!-- Generator: Adobe Illustrator 17.0.0, SVG Export Plug-In . SVG Version: 6.00 Build 0)  -->
<!DOCTYPE svg PUBLIC "-//W3C//DTD SVG 1.1//EN" "http://www.w3.org/Graphics/SVG/1.1/DTD/svg11.dtd">
<svg version="1.1" id="Bold" xmlns="http://www.w3.org/2000/svg" xmlns:xlink="http://www.w3.org/1999/xlink" x="0px" y="0px"
	 width="512px" height="512px" viewBox="0 0 512 512" enable-background="new 0 0 512 512" xml:space="preserve">
<path fill="#F35D2E" d="M256,512c141.312,0,256-114.688,256-256S397.312,0,256,0S0,114.688,0,256S114.688,512,256,512z
	 M347.371,237.717h36.651v-36.629h36.651v36.651h36.331v36.651h-36.331v36.651h-36.651v-36.651h-36.651V237.717z M183.019,127.979
	c32.299,0,62.037,11.371,85.696,33.344l-34.688,33.664c-13.632-13.333-32.299-19.712-51.008-19.712
	c-44.288,0-79.701,36.651-79.701,80.619s35.307,80.619,79.701,80.619c33.643,0,66.987-19.712,72.363-55.019h-72.363v-43.968h120.683
	c1.344,7.019,1.963,14.037,1.963,21.355c0,73.088-49.045,125.099-122.645,125.099V384C112,384,54.997,326.699,54.997,255.979
	S112,127.979,183.019,127.979L183.019,127.979z"/>
</svg>
